<?xml version="1.0" encoding="UTF-8"?>
<svg width="83px" height="83px" viewBox="0 0 83 83" version="1.1" xmlns="http://www.w3.org/2000/svg" xmlns:xlink="http://www.w3.org/1999/xlink">
    <!-- Generator: Sketch 51.3 (57544) - http://www.bohemiancoding.com/sketch -->
    <title>Group</title>
    <desc>Created with Sketch.</desc>
    <defs></defs>
    <g id="Icons" stroke="none" stroke-width="1" fill="none" fill-rule="evenodd">
        <g id="Artboard" transform="translate(-107.000000, -178.000000)">
            <g id="Group" transform="translate(107.000000, 178.000000)">
                <rect id="Rectangle" fill="#F1F333" x="0" y="0" width="83" height="83" rx="2"></rect>
                <g id="Document_add" transform="translate(23.000000, 21.000000)" fill="#000000">
                    <path d="M32.72,22.54 L32.72,13.4 C32.720317,12.49486 32.474925,11.6066101 32.01,10.83 C31.9304346,10.6930775 31.8401524,10.56267 31.74,10.44 L25.14,2.58 C24.2081007,1.21556911 22.6623038,0.399627909 21.01,0.4 L5.72,0.4 C2.95857625,0.4 0.72,2.63857625 0.72,5.4 L0.72,33.4 C0.72,36.1614237 2.95857625,38.4 5.72,38.4 L22.41,38.4 C25.2389396,40.5874648 29.0573442,40.9989515 32.2873804,39.4644262 C35.5174166,37.929901 37.6105939,34.7099407 37.7019736,31.1350908 C37.7933534,27.560241 35.8674185,24.2375448 32.72,22.54 L32.72,22.54 Z M3.72,33.4 L3.72,5.4 C3.72,4.2954305 4.6154305,3.4 5.72,3.4 L21.01,3.4 C21.7166408,3.40781643 22.3667012,3.78796873 22.72,4.4 L29.43,12.4 C29.6132598,12.7018835 29.7133172,13.0469091 29.72,13.4 L29.72,21.53 C26.1544174,20.9573755 22.5728432,22.4580716 20.4804642,25.4014079 C18.3880853,28.3447442 18.1475712,32.2205557 19.86,35.4 L5.72,35.4 C4.6154305,35.4 3.72,34.5045695 3.72,33.4 Z M28.22,37.4 C24.6301491,37.4 21.72,34.4898509 21.72,30.9 C21.72,27.3101491 24.6301491,24.4 28.22,24.4 C31.8098509,24.4 34.72,27.3101491 34.72,30.9 C34.72,34.4898509 31.8098509,37.4 28.22,37.4 Z" id="Shape"></path>
                    <path d="M31.22,29.4 L29.72,29.4 L29.72,27.9 C29.72,27.0715729 29.0484271,26.4 28.22,26.4 C27.3915729,26.4 26.72,27.0715729 26.72,27.9 L26.72,29.4 L25.22,29.4 C24.3915729,29.4 23.72,30.0715729 23.72,30.9 C23.72,31.7284271 24.3915729,32.4 25.22,32.4 L26.72,32.4 L26.72,33.9 C26.72,34.7284271 27.3915729,35.4 28.22,35.4 C29.0484271,35.4 29.72,34.7284271 29.72,33.9 L29.72,32.4 L31.22,32.4 C32.0484271,32.4 32.72,31.7284271 32.72,30.9 C32.72,30.0715729 32.0484271,29.4 31.22,29.4 Z" id="Shape"></path>
                </g>
            </g>
        </g>
    </g>
</svg>